<?xml version="1.0" encoding="UTF-8"?>
<svg xmlns="http://www.w3.org/2000/svg" xmlns:xlink="http://www.w3.org/1999/xlink" width="70pt" height="70pt" viewBox="0 0 70 70" version="1.1">
<g id="surface1">
<path style=" stroke:none;fill-rule:evenodd;fill:rgb(23.137255%,34.901961%,60%);fill-opacity:1;" d="M 7.578125 0 L 62.242188 0 C 66.425781 0 69.816406 3.390625 69.816406 7.578125 L 69.816406 62.242188 C 69.816406 66.425781 66.425781 69.816406 62.242188 69.816406 L 7.578125 69.816406 C 3.390625 69.816406 0 66.425781 0 62.242188 L 0 7.578125 C 0 3.390625 3.390625 0 7.578125 0 Z M 7.578125 0 "/>
<path style=" stroke:none;fill-rule:evenodd;fill:rgb(100%,100%,100%);fill-opacity:1;" d="M 22.730469 28.683594 L 30.039062 28.683594 L 30.039062 27.332031 C 30.039062 25.167969 29.765625 22.460938 30.039062 20.296875 C 30.308594 15.152344 33.015625 11.90625 40.050781 11.636719 L 47.085938 11.90625 L 47.085938 19.484375 C 44.109375 19.484375 38.96875 18.402344 38.425781 22.191406 L 38.425781 28.683594 L 46.546875 28.683594 L 45.734375 37.074219 L 38.425781 37.074219 L 38.425781 58.179688 L 30.039062 58.179688 L 30.039062 37.074219 L 22.730469 36.804688 Z M 22.730469 28.683594 "/>
<path style=" stroke:none;fill-rule:evenodd;fill:rgb(18.823529%,28.235294%,48.627451%);fill-opacity:1;" d="M 69.816406 34.636719 L 47.085938 11.90625 L 47.085938 19.484375 C 44.109375 19.484375 38.96875 18.402344 38.425781 22.191406 L 38.425781 28.683594 L 46.546875 28.683594 L 45.734375 37.074219 L 38.425781 37.074219 L 38.425781 58.179688 L 30.039062 58.179688 L 41.675781 69.816406 L 62.242188 69.816406 L 69.816406 62.242188 Z M 69.816406 34.636719 "/>
</g>
</svg>
