<?xml version="1.0" encoding="UTF-8"?>
<svg xmlns="http://www.w3.org/2000/svg" xmlns:xlink="http://www.w3.org/1999/xlink" width="70pt" height="70pt" viewBox="0 0 70 70" version="1.1">
<g id="surface1">
<path style=" stroke:none;fill-rule:evenodd;fill:rgb(100%,90.980392%,7.058824%);fill-opacity:1;" d="M 7.480469 0 L 62.335938 0 C 66.46875 0 69.816406 3.347656 69.816406 7.480469 L 69.816406 62.335938 C 69.816406 66.46875 66.46875 69.816406 62.335938 69.816406 L 7.480469 69.816406 C 3.347656 69.816406 0 66.46875 0 62.335938 L 0 7.480469 C 0 3.347656 3.347656 0 7.480469 0 Z M 7.480469 0 "/>
<path style=" stroke:none;fill-rule:evenodd;fill:rgb(100%,100%,100%);fill-opacity:1;" d="M 9.351562 31.480469 C 9.351562 35.53125 10.910156 39.585938 13.089844 42.078125 C 14.648438 43.949219 18.390625 47.6875 21.195312 48.625 C 20.570312 52.988281 17.144531 59.53125 19.949219 58.285156 L 26.183594 54.234375 C 31.792969 50.183594 29.296875 51.738281 35.53125 51.738281 C 48 51.738281 60.46875 43.324219 60.46875 31.480469 C 60.46875 19.324219 48 11.53125 34.597656 11.53125 C 22.128906 11.53125 9.351562 19.636719 9.351562 31.480469 Z M 24.625 27.117188 L 22.128906 27.117188 L 22.128906 36.15625 C 22.128906 36.46875 21.816406 37.089844 21.816406 37.089844 C 21.507812 37.402344 21.195312 37.402344 20.882812 37.402344 C 20.570312 37.402344 20.257812 37.402344 19.949219 37.089844 C 19.636719 36.777344 19.636719 36.46875 19.636719 36.15625 L 19.636719 27.117188 L 16.832031 27.117188 C 16.519531 27.117188 16.207031 27.117188 15.894531 27.117188 C 15.585938 26.804688 15.585938 26.492188 15.585938 26.183594 C 15.585938 25.871094 15.585938 25.558594 15.894531 25.558594 C 16.207031 25.246094 16.519531 25.246094 16.832031 25.246094 L 24.625 25.246094 C 25.246094 25.246094 25.558594 25.246094 25.558594 25.558594 C 25.871094 25.558594 25.871094 25.871094 25.871094 26.183594 C 25.871094 26.492188 25.871094 26.804688 25.558594 27.117188 C 25.558594 27.117188 25.246094 27.117188 24.625 27.117188 Z M 32.414062 35.84375 L 31.792969 34.597656 L 26.804688 34.597656 L 26.183594 36.15625 C 25.871094 36.46875 25.871094 37.089844 25.558594 37.089844 C 25.558594 37.402344 25.246094 37.402344 24.933594 37.402344 C 24.625 37.402344 24.3125 37.402344 24 37.089844 C 23.6875 37.089844 23.6875 36.777344 23.6875 36.46875 C 23.6875 36.15625 23.6875 36.15625 23.6875 35.84375 C 23.6875 35.84375 24 35.53125 24 35.21875 L 27.117188 27.429688 C 27.117188 27.117188 27.429688 26.804688 27.429688 26.492188 C 27.429688 26.183594 27.738281 25.871094 27.738281 25.871094 C 28.050781 25.558594 28.050781 25.246094 28.363281 25.246094 C 28.675781 24.933594 28.988281 24.933594 29.296875 24.933594 C 29.609375 24.933594 29.921875 24.933594 30.234375 25.246094 C 30.234375 25.246094 30.546875 25.558594 30.546875 25.558594 C 30.855469 25.871094 30.855469 26.183594 30.855469 26.492188 C 31.167969 26.492188 31.167969 26.804688 31.480469 27.429688 L 34.597656 35.21875 C 34.910156 35.84375 34.910156 36.15625 34.910156 36.46875 C 34.910156 36.777344 34.910156 37.089844 34.597656 37.089844 C 34.285156 37.402344 33.972656 37.402344 33.664062 37.402344 C 33.664062 37.402344 33.351562 37.402344 33.351562 37.402344 C 33.039062 37.402344 33.039062 37.402344 32.726562 37.089844 C 32.726562 37.089844 32.726562 36.777344 32.414062 36.777344 C 32.414062 36.46875 32.414062 36.15625 32.414062 35.84375 Z M 27.429688 32.726562 L 31.167969 32.726562 L 29.296875 27.738281 Z M 38.027344 26.492188 L 38.027344 35.21875 L 41.453125 35.21875 C 41.765625 35.21875 42.078125 35.53125 42.390625 35.53125 C 42.699219 35.84375 42.699219 36.15625 42.699219 36.46875 C 42.699219 36.777344 42.699219 36.777344 42.390625 37.089844 C 42.078125 37.402344 41.765625 37.402344 41.453125 37.402344 L 37.089844 37.402344 C 36.46875 37.402344 36.15625 37.089844 35.84375 37.089844 C 35.53125 36.777344 35.53125 36.46875 35.53125 35.84375 L 35.53125 26.492188 C 35.53125 25.871094 35.53125 25.558594 35.84375 25.246094 C 36.15625 25.246094 36.15625 24.933594 36.777344 24.933594 C 37.089844 24.933594 37.402344 25.246094 37.402344 25.246094 C 37.714844 25.558594 38.027344 25.871094 38.027344 26.492188 Z M 45.507812 26.492188 L 45.507812 30.855469 L 50.492188 25.871094 C 50.804688 25.558594 50.804688 25.246094 51.117188 25.246094 C 51.117188 24.933594 51.429688 24.933594 51.738281 24.933594 C 52.050781 24.933594 52.363281 25.246094 52.675781 25.246094 C 52.675781 25.558594 52.988281 25.871094 52.988281 26.183594 C 52.988281 26.492188 52.675781 26.804688 52.363281 27.117188 L 49.246094 29.921875 L 52.675781 34.910156 C 52.988281 35.21875 53.296875 35.53125 53.296875 35.84375 C 53.609375 36.15625 53.609375 36.15625 53.609375 36.46875 C 53.609375 36.777344 53.296875 37.089844 53.296875 37.402344 C 52.988281 37.402344 52.675781 37.402344 52.363281 37.402344 C 52.050781 37.402344 51.738281 37.402344 51.429688 37.402344 C 51.429688 37.089844 51.117188 37.089844 51.117188 36.777344 C 50.804688 36.46875 50.804688 36.15625 50.492188 36.15625 L 47.6875 31.480469 L 45.507812 33.664062 L 45.507812 36.15625 C 45.507812 36.46875 45.507812 37.089844 45.195312 37.089844 C 45.195312 37.402344 44.882812 37.402344 44.570312 37.402344 C 44.257812 37.402344 43.949219 37.402344 43.949219 37.402344 C 43.636719 37.402344 43.324219 37.089844 43.324219 37.089844 C 43.324219 36.777344 43.324219 36.46875 43.324219 36.46875 C 43.324219 36.15625 43.324219 35.84375 43.324219 35.53125 L 43.324219 26.492188 C 43.324219 25.871094 43.324219 25.558594 43.636719 25.246094 C 43.636719 25.246094 43.949219 24.933594 44.570312 24.933594 C 44.882812 24.933594 45.195312 25.246094 45.195312 25.246094 C 45.507812 25.558594 45.507812 25.871094 45.507812 26.492188 Z M 45.507812 26.492188 "/>
<path style=" stroke:none;fill-rule:evenodd;fill:rgb(81.176471%,73.72549%,5.490196%);fill-opacity:1;" d="M 69.816406 33.972656 L 56.105469 19.949219 C 58.910156 23.066406 60.46875 27.117188 60.46875 31.480469 C 60.46875 43.324219 48 51.738281 35.53125 51.738281 C 29.296875 51.738281 31.792969 50.183594 26.183594 54.234375 L 19.949219 58.285156 C 19.636719 58.597656 19.324219 58.597656 19.011719 58.285156 L 30.546875 69.816406 L 62.335938 69.816406 L 69.816406 62.335938 Z M 69.816406 33.972656 "/>
<path style=" stroke:none;fill-rule:evenodd;fill:rgb(81.176471%,73.72549%,5.490196%);fill-opacity:1;" d="M 22.128906 36.15625 L 22.128906 27.117188 L 24.625 27.117188 C 25.246094 27.117188 25.558594 27.117188 25.558594 27.117188 C 25.871094 26.804688 25.871094 26.492188 25.871094 26.183594 C 25.871094 25.871094 25.871094 25.558594 25.558594 25.558594 C 25.558594 25.246094 25.246094 25.246094 24.625 25.246094 L 16.832031 25.246094 C 16.519531 25.246094 16.207031 25.246094 15.894531 25.558594 C 15.585938 25.558594 15.585938 25.871094 15.585938 26.183594 C 15.585938 26.492188 15.585938 26.804688 15.894531 27.117188 C 16.207031 27.117188 16.519531 27.117188 16.832031 27.117188 L 19.636719 27.117188 L 19.636719 36.15625 C 19.636719 36.46875 19.636719 36.777344 19.949219 37.089844 C 20.257812 37.402344 20.570312 37.402344 20.882812 37.402344 C 21.195312 37.402344 21.507812 37.402344 21.816406 37.089844 C 21.816406 37.089844 22.128906 36.46875 22.128906 36.15625 Z M 22.128906 36.15625 "/>
<path style=" stroke:none;fill-rule:evenodd;fill:rgb(81.176471%,73.72549%,5.490196%);fill-opacity:1;" d="M 27.117188 27.429688 L 24 35.21875 L 23.6875 35.84375 C 23.6875 36.15625 23.6875 36.15625 23.6875 36.46875 C 23.6875 36.777344 23.6875 37.089844 24 37.089844 C 24.3125 37.402344 24.625 37.402344 24.933594 37.402344 C 25.246094 37.402344 25.558594 37.402344 25.558594 37.089844 C 25.871094 37.089844 25.871094 36.46875 26.183594 36.15625 L 26.804688 34.597656 L 31.792969 34.597656 L 32.414062 35.84375 L 32.414062 36.777344 C 32.726562 36.777344 32.726562 37.089844 32.726562 37.089844 C 33.039062 37.402344 33.039062 37.402344 33.351562 37.402344 C 33.351562 37.402344 33.664062 37.402344 33.664062 37.402344 C 33.972656 37.402344 34.285156 37.402344 34.597656 37.089844 C 34.910156 37.089844 34.910156 36.777344 34.910156 36.46875 C 34.910156 36.15625 34.910156 35.84375 34.597656 35.21875 L 31.480469 27.429688 L 30.855469 26.492188 C 30.855469 26.183594 30.855469 25.871094 30.546875 25.558594 C 30.546875 25.558594 30.234375 25.246094 30.234375 25.246094 C 29.921875 24.933594 29.609375 24.933594 29.296875 24.933594 C 28.988281 24.933594 28.675781 24.933594 28.363281 25.246094 C 28.050781 25.246094 28.050781 25.558594 27.738281 25.871094 C 27.738281 25.871094 27.429688 26.183594 27.429688 26.492188 Z M 31.167969 32.726562 L 27.429688 32.726562 L 29.296875 27.738281 Z M 31.167969 32.726562 "/>
<path style=" stroke:none;fill-rule:evenodd;fill:rgb(81.176471%,73.72549%,5.490196%);fill-opacity:1;" d="M 35.53125 26.492188 L 35.53125 35.84375 C 35.53125 36.46875 35.53125 36.777344 35.84375 37.089844 C 36.15625 37.089844 36.46875 37.402344 37.089844 37.402344 L 41.453125 37.402344 C 41.765625 37.402344 42.078125 37.402344 42.390625 37.089844 C 42.699219 36.777344 42.699219 36.777344 42.699219 36.46875 C 42.699219 36.15625 42.699219 35.84375 42.390625 35.53125 C 42.078125 35.53125 41.765625 35.21875 41.453125 35.21875 L 38.027344 35.21875 L 38.027344 26.492188 C 38.027344 25.871094 37.714844 25.558594 37.402344 25.246094 C 37.402344 25.246094 37.089844 24.933594 36.777344 24.933594 C 36.15625 24.933594 36.15625 25.246094 35.84375 25.246094 C 35.53125 25.558594 35.53125 25.871094 35.53125 26.492188 Z M 35.53125 26.492188 "/>
<path style=" stroke:none;fill-rule:evenodd;fill:rgb(81.176471%,73.72549%,5.490196%);fill-opacity:1;" d="M 43.324219 26.492188 L 43.324219 36.46875 C 43.324219 36.46875 43.324219 36.777344 43.324219 37.089844 C 43.324219 37.089844 43.636719 37.402344 43.949219 37.402344 C 43.949219 37.402344 44.257812 37.402344 44.570312 37.402344 C 44.882812 37.402344 45.195312 37.402344 45.195312 37.089844 C 45.507812 37.089844 45.816406 36.46875 45.816406 36.15625 L 45.816406 33.664062 L 47.6875 31.480469 L 50.492188 36.15625 L 51.117188 36.777344 C 51.117188 37.089844 51.429688 37.089844 51.429688 37.402344 C 51.738281 37.402344 52.050781 37.402344 52.363281 37.402344 C 52.675781 37.402344 52.988281 37.402344 53.296875 37.402344 C 53.296875 37.089844 53.609375 36.777344 53.609375 36.46875 C 53.609375 36.46875 53.609375 36.15625 53.296875 35.84375 C 53.296875 35.53125 52.988281 35.21875 52.675781 34.910156 L 49.246094 29.921875 L 52.363281 27.117188 C 52.675781 26.804688 52.988281 26.492188 52.988281 26.183594 C 52.988281 25.871094 52.675781 25.558594 52.675781 25.246094 C 52.363281 25.246094 52.050781 24.933594 51.738281 24.933594 C 51.429688 24.933594 51.117188 24.933594 51.117188 25.246094 C 50.804688 25.246094 50.804688 25.558594 50.492188 25.871094 L 45.816406 30.855469 L 45.816406 26.492188 C 45.816406 25.871094 45.507812 25.558594 45.195312 25.246094 C 45.195312 25.246094 44.882812 24.933594 44.570312 24.933594 C 43.949219 24.933594 43.636719 25.246094 43.636719 25.246094 C 43.324219 25.558594 43.324219 25.871094 43.324219 26.492188 Z M 43.324219 26.492188 "/>
</g>
</svg>
