<?xml version="1.0" encoding="UTF-8"?>
<svg xmlns="http://www.w3.org/2000/svg" xmlns:xlink="http://www.w3.org/1999/xlink" width="70pt" height="70pt" viewBox="0 0 70 70" version="1.1">
<g id="surface1">
<path style=" stroke:none;fill-rule:nonzero;fill:rgb(0%,0%,0%);fill-opacity:1;" d="M 68.496094 1.25 L 16.730469 1.25 C 15.902344 1.25 15.226562 1.921875 15.226562 2.753906 L 15.226562 32.644531 L 1.503906 32.644531 C 0.671875 32.644531 0 33.316406 0 34.148438 L 0 59.632812 C 0 64.660156 4.089844 68.75 9.117188 68.75 C 9.246094 68.75 60.882812 68.75 60.882812 68.75 C 65.910156 68.75 70 64.660156 70 59.632812 L 70 2.753906 C 70 1.921875 69.328125 1.25 68.496094 1.25 Z M 3.007812 59.632812 L 3.007812 35.652344 L 15.226562 35.652344 L 15.226562 59.632812 C 15.226562 63.003906 12.488281 65.746094 9.117188 65.746094 C 5.75 65.746094 3.007812 63.003906 3.007812 59.632812 Z M 66.992188 59.632812 C 66.992188 63.003906 64.25 65.746094 60.882812 65.746094 L 15.878906 65.746094 C 17.34375 64.125 18.234375 61.980469 18.234375 59.632812 L 18.234375 4.253906 L 66.992188 4.253906 Z M 66.992188 59.632812 "/>
<path style=" stroke:none;fill-rule:nonzero;fill:rgb(0%,0%,0%);fill-opacity:1;" d="M 40.503906 18.617188 L 59.773438 18.617188 C 60.605469 18.617188 61.277344 17.941406 61.277344 17.113281 C 61.277344 16.28125 60.605469 15.609375 59.773438 15.609375 L 40.503906 15.609375 C 39.671875 15.609375 39 16.28125 39 17.113281 C 39 17.941406 39.671875 18.617188 40.503906 18.617188 Z M 40.503906 18.617188 "/>
<path style=" stroke:none;fill-rule:nonzero;fill:rgb(0%,0%,0%);fill-opacity:1;" d="M 40.503906 35.132812 L 59.773438 35.132812 C 60.605469 35.132812 61.277344 34.460938 61.277344 33.628906 C 61.277344 32.800781 60.605469 32.125 59.773438 32.125 L 40.503906 32.125 C 39.671875 32.125 39 32.800781 39 33.628906 C 39 34.460938 39.671875 35.132812 40.503906 35.132812 Z M 40.503906 35.132812 "/>
<path style=" stroke:none;fill-rule:nonzero;fill:rgb(0%,0%,0%);fill-opacity:1;" d="M 40.503906 51.652344 L 59.773438 51.652344 C 60.605469 51.652344 61.277344 50.980469 61.277344 50.148438 C 61.277344 49.320312 60.605469 48.644531 59.773438 48.644531 L 40.503906 48.644531 C 39.671875 48.644531 39 49.320312 39 50.148438 C 39 50.980469 39.671875 51.652344 40.503906 51.652344 Z M 40.503906 51.652344 "/>
<path style=" stroke:none;fill-rule:nonzero;fill:rgb(0%,0%,0%);fill-opacity:1;" d="M 26.625 20.308594 C 26.910156 20.609375 27.308594 20.777344 27.71875 20.777344 C 27.722656 20.777344 27.726562 20.777344 27.734375 20.777344 C 28.152344 20.773438 28.546875 20.597656 28.832031 20.289062 L 37.089844 11.242188 C 37.648438 10.628906 37.605469 9.679688 36.992188 9.117188 C 36.378906 8.558594 35.429688 8.601562 34.867188 9.214844 L 27.703125 17.066406 L 25.46875 14.703125 C 24.898438 14.097656 23.949219 14.070312 23.34375 14.640625 C 22.742188 15.210938 22.714844 16.164062 23.285156 16.769531 Z M 26.625 20.308594 "/>
<path style=" stroke:none;fill-rule:nonzero;fill:rgb(0%,0%,0%);fill-opacity:1;" d="M 34.867188 26.453125 L 27.703125 34.300781 L 25.46875 31.9375 C 24.898438 31.335938 23.949219 31.308594 23.34375 31.878906 C 22.742188 32.449219 22.714844 33.398438 23.285156 34.003906 L 26.625 37.542969 C 26.910156 37.84375 27.308594 38.015625 27.71875 38.015625 C 27.722656 38.015625 27.726562 38.015625 27.734375 38.015625 C 28.152344 38.011719 28.546875 37.835938 28.832031 37.523438 L 37.089844 28.480469 C 37.648438 27.867188 37.605469 26.914062 36.992188 26.355469 C 36.378906 25.796875 35.429688 25.839844 34.867188 26.453125 Z M 34.867188 26.453125 "/>
<path style=" stroke:none;fill-rule:nonzero;fill:rgb(0%,0%,0%);fill-opacity:1;" d="M 34.867188 43.6875 L 27.703125 51.539062 L 25.46875 49.175781 C 24.898438 48.570312 23.949219 48.542969 23.34375 49.113281 C 22.742188 49.683594 22.714844 50.636719 23.285156 51.238281 L 26.625 54.78125 C 26.910156 55.082031 27.308594 55.25 27.71875 55.25 C 27.722656 55.25 27.726562 55.25 27.734375 55.25 C 28.152344 55.246094 28.546875 55.070312 28.832031 54.761719 L 37.089844 45.714844 C 37.648438 45.101562 37.605469 44.152344 36.992188 43.589844 C 36.378906 43.03125 35.429688 43.074219 34.867188 43.6875 Z M 34.867188 43.6875 "/>
</g>
</svg>
