<?xml version="1.0" encoding="UTF-8"?>
<svg xmlns="http://www.w3.org/2000/svg" xmlns:xlink="http://www.w3.org/1999/xlink" width="70pt" height="70pt" viewBox="0 0 70 70" version="1.1">
<g id="surface1">
<path style=" stroke:none;fill-rule:nonzero;fill:rgb(96.862745%,89.019608%,39.607843%);fill-opacity:1;" d="M 65.003906 0 L 46.464844 0 C 44.5 0 42.910156 1.59375 42.910156 3.554688 L 42.910156 22.09375 C 42.910156 24.058594 44.5 25.652344 46.464844 25.652344 L 49.792969 25.652344 C 50.761719 25.652344 51.546875 26.4375 51.546875 27.40625 L 51.546875 30.402344 C 51.546875 31.035156 52.34375 31.308594 52.730469 30.808594 L 56.222656 26.304688 C 56.542969 25.890625 57.039062 25.652344 57.558594 25.652344 L 65.003906 25.652344 C 66.96875 25.652344 68.558594 24.058594 68.558594 22.09375 L 68.558594 3.554688 C 68.558594 1.59375 66.96875 0 65.003906 0 Z M 65.003906 0 "/>
<path style=" stroke:none;fill-rule:nonzero;fill:rgb(95.294118%,82.745098%,19.607843%);fill-opacity:1;" d="M 65.003906 0 L 61.160156 0 C 63.125 0 64.71875 1.59375 64.71875 3.554688 L 64.71875 22.09375 C 64.71875 24.058594 63.125 25.652344 61.160156 25.652344 L 65.003906 25.652344 C 66.96875 25.652344 68.558594 24.058594 68.558594 22.09375 L 68.558594 3.554688 C 68.558594 1.59375 66.96875 0 65.003906 0 Z M 65.003906 0 "/>
<path style=" stroke:none;fill-rule:nonzero;fill:rgb(98.039216%,65.098039%,55.686275%);fill-opacity:1;" d="M 41.996094 70 L 4.546875 70 L 5.0625 62.925781 C 5.375 58.597656 8.636719 55.058594 12.925781 54.390625 L 15.890625 53.921875 C 17.398438 53.6875 18.507812 52.390625 18.507812 50.867188 L 18.507812 39.980469 L 29.632812 39.980469 L 29.632812 50.867188 C 29.632812 52.390625 30.746094 53.6875 32.253906 53.921875 L 35.21875 54.390625 C 39.507812 55.058594 42.765625 58.597656 43.082031 62.925781 L 43.480469 68.402344 C 43.542969 69.265625 42.859375 70 41.996094 70 Z M 41.996094 70 "/>
<path style=" stroke:none;fill-rule:nonzero;fill:rgb(87.843137%,57.647059%,50.196078%);fill-opacity:1;" d="M 15.949219 60.675781 C 16.078125 60.179688 16.527344 59.835938 17.039062 59.835938 L 21.710938 59.835938 C 24.242188 59.835938 26.296875 57.78125 26.296875 55.25 L 26.296875 53.324219 C 26.296875 52.871094 26.664062 52.503906 27.113281 52.503906 L 30.105469 52.503906 C 29.808594 52.027344 29.632812 51.464844 29.632812 50.863281 L 29.632812 47.625 L 19.804688 47.625 C 19.28125 47.625 18.972656 47.035156 19.273438 46.605469 L 21.242188 43.789062 C 21.550781 43.355469 21.6875 42.847656 21.671875 42.351562 C 21.652344 41.636719 21.3125 40.941406 20.691406 40.492188 L 20.640625 40.453125 C 20 39.988281 19.210938 39.875 18.507812 40.074219 L 18.507812 50.863281 C 18.507812 52.390625 17.398438 53.6875 15.890625 53.921875 L 12.921875 54.386719 C 10.917969 54.703125 9.140625 55.644531 7.78125 56.996094 L 4.601562 69.222656 L 4.546875 70 L 13.527344 70 Z M 15.949219 60.675781 "/>
<path style=" stroke:none;fill-rule:nonzero;fill:rgb(67.45098%,85.098039%,50.196078%);fill-opacity:1;" d="M 41.996094 70 L 4.546875 70 L 5.0625 62.925781 C 5.375 58.597656 8.636719 55.058594 12.925781 54.390625 L 15.890625 53.921875 C 16.101562 53.890625 16.304688 53.835938 16.496094 53.765625 C 18.328125 55.746094 21.015625 56.996094 24.015625 56.996094 C 27.027344 56.996094 29.730469 55.734375 31.5625 53.734375 C 31.78125 53.820312 32.011719 53.886719 32.253906 53.921875 L 35.21875 54.390625 C 39.507812 55.058594 42.765625 58.597656 43.082031 62.925781 L 43.480469 68.402344 C 43.542969 69.265625 42.859375 70 41.996094 70 Z M 41.996094 70 "/>
<path style=" stroke:none;fill-rule:nonzero;fill:rgb(54.901961%,78.823529%,31.764706%);fill-opacity:1;" d="M 17.039062 59.835938 L 21.710938 59.835938 C 23.699219 59.835938 25.390625 58.570312 26.027344 56.800781 C 25.375 56.929688 24.703125 56.996094 24.015625 56.996094 C 21.015625 56.996094 18.328125 55.746094 16.496094 53.765625 C 14.703125 54.429688 10.980469 53.808594 7.78125 56.996094 L 4.601562 69.222656 L 4.546875 70 L 13.527344 70 L 15.949219 60.675781 C 16.078125 60.179688 16.527344 59.835938 17.039062 59.835938 Z M 17.039062 59.835938 "/>
<path style=" stroke:none;fill-rule:nonzero;fill:rgb(54.901961%,78.823529%,31.764706%);fill-opacity:1;" d="M 43.480469 68.402344 L 43.082031 62.925781 C 42.925781 60.785156 42.042969 58.8125 40.640625 57.285156 C 37.441406 53.8125 33.46875 54.398438 31.710938 53.789062 C 31.707031 53.785156 31.699219 53.785156 31.691406 53.78125 C 31.648438 53.765625 31.605469 53.75 31.5625 53.734375 C 31.25 54.074219 30.914062 54.390625 30.554688 54.683594 L 31.363281 54.8125 C 35.648438 55.480469 38.910156 59.019531 39.222656 63.347656 L 39.621094 68.824219 C 39.65625 69.285156 39.476562 69.707031 39.175781 70 L 41.996094 70 C 42.859375 70 43.542969 69.265625 43.480469 68.402344 Z M 43.480469 68.402344 "/>
<path style=" stroke:none;fill-rule:nonzero;fill:rgb(54.901961%,78.823529%,31.764706%);fill-opacity:1;" d="M 36.066406 63.570312 C 35.480469 63.570312 35.007812 64.042969 35.007812 64.628906 L 35.007812 70 L 37.121094 70 L 37.121094 64.628906 C 37.121094 64.042969 36.648438 63.570312 36.066406 63.570312 Z M 36.066406 63.570312 "/>
<path style=" stroke:none;fill-rule:nonzero;fill:rgb(32.941176%,30.980392%,33.72549%);fill-opacity:1;" d="M 55.0625 17.515625 C 54.480469 17.515625 54.007812 17.042969 54.007812 16.457031 L 54.007812 12.84375 C 54.007812 12.261719 54.480469 11.789062 55.0625 11.789062 L 55.734375 11.789062 C 57.269531 11.789062 58.519531 10.539062 58.519531 9.003906 C 58.519531 7.464844 57.269531 6.21875 55.734375 6.21875 C 54.199219 6.21875 52.949219 7.464844 52.949219 9.003906 C 52.949219 9.585938 52.476562 10.058594 51.890625 10.058594 C 51.308594 10.058594 50.835938 9.585938 50.835938 9.003906 C 50.835938 6.300781 53.035156 4.105469 55.734375 4.105469 C 58.433594 4.105469 60.632812 6.300781 60.632812 9.003906 C 60.632812 11.574219 58.640625 13.6875 56.121094 13.886719 L 56.121094 16.457031 C 56.121094 17.042969 55.648438 17.515625 55.0625 17.515625 Z M 55.0625 17.515625 "/>
<path style=" stroke:none;fill-rule:nonzero;fill:rgb(32.941176%,30.980392%,33.72549%);fill-opacity:1;" d="M 55.0625 21.546875 C 54.480469 21.546875 54.007812 21.074219 54.007812 20.492188 L 54.007812 20.179688 C 54.007812 19.597656 54.480469 19.125 55.0625 19.125 C 55.648438 19.125 56.121094 19.597656 56.121094 20.179688 L 56.121094 20.492188 C 56.121094 21.074219 55.648438 21.546875 55.0625 21.546875 Z M 55.0625 21.546875 "/>
<path style=" stroke:none;fill-rule:nonzero;fill:rgb(39.607843%,36.862745%,40.392157%);fill-opacity:1;" d="M 26.0625 4.703125 L 21.339844 4.703125 C 15.84375 4.703125 11.050781 7.707031 8.507812 12.160156 C 4.976562 13.085938 2.398438 16.351562 2.507812 20.179688 L 2.917969 34.285156 L 44.234375 34.285156 L 44.234375 22.871094 C 44.234375 12.839844 36.097656 4.703125 26.0625 4.703125 Z M 26.0625 4.703125 "/>
<path style=" stroke:none;fill-rule:nonzero;fill:rgb(98.039216%,65.098039%,55.686275%);fill-opacity:1;" d="M 11.882812 36.660156 L 4.605469 36.660156 C 2.855469 36.660156 1.441406 35.246094 1.441406 33.496094 L 1.441406 32.503906 C 1.441406 30.757812 2.855469 29.339844 4.605469 29.339844 L 11.882812 29.339844 Z M 11.882812 36.660156 "/>
<path style=" stroke:none;fill-rule:nonzero;fill:rgb(98.039216%,65.098039%,55.686275%);fill-opacity:1;" d="M 35.304688 36.660156 L 42.582031 36.660156 C 44.328125 36.660156 45.746094 35.246094 45.746094 33.496094 L 45.746094 32.503906 C 45.746094 30.757812 44.328125 29.339844 42.582031 29.339844 L 35.304688 29.339844 Z M 35.304688 36.660156 "/>
<path style=" stroke:none;fill-rule:nonzero;fill:rgb(98.039216%,65.098039%,55.686275%);fill-opacity:1;" d="M 40.683594 31.792969 C 40.683594 42.222656 30.160156 48.207031 24.015625 48.207031 C 17.871094 48.207031 7.347656 42.222656 7.347656 31.792969 C 7.347656 25.132812 9.199219 20.089844 12.195312 16.707031 C 12.867188 15.949219 14.058594 15.957031 14.730469 16.714844 C 15.414062 17.492188 16.136719 18.230469 16.921875 18.90625 C 17.847656 19.699219 18.9375 20.425781 20.15625 20.4375 C 20.96875 20.449219 21.8125 20.011719 22.25 19.363281 C 22.613281 18.824219 23.332031 18.65625 23.921875 18.929688 C 27.800781 20.746094 32.085938 21.855469 36.378906 22.097656 C 38.105469 22.195312 39.574219 23.410156 39.964844 25.097656 C 40.433594 27.109375 40.683594 29.339844 40.683594 31.792969 Z M 40.683594 31.792969 "/>
<path style=" stroke:none;fill-rule:nonzero;fill:rgb(87.843137%,57.647059%,50.196078%);fill-opacity:1;" d="M 39.964844 25.097656 C 39.65625 23.757812 38.664062 22.714844 37.402344 22.296875 C 37.777344 24.160156 37.980469 26.199219 37.980469 28.414062 C 37.980469 39.0625 27.234375 45.175781 20.960938 45.175781 C 18.039062 45.175781 14.15625 43.851562 10.832031 41.363281 C 14.449219 45.792969 20.113281 48.207031 24.015625 48.207031 C 30.160156 48.207031 40.683594 42.222656 40.683594 31.792969 C 40.683594 29.339844 40.433594 27.109375 39.964844 25.097656 Z M 39.964844 25.097656 "/>
<path style=" stroke:none;fill-rule:nonzero;fill:rgb(97.647059%,69.411765%,62.745098%);fill-opacity:1;" d="M 10.515625 70 L 13.554688 58.308594 C 13.683594 57.808594 14.132812 57.460938 14.648438 57.460938 L 19.316406 57.460938 C 21.847656 57.460938 23.902344 55.410156 23.902344 52.875 L 23.902344 50.949219 C 23.902344 50.496094 24.269531 50.132812 24.71875 50.132812 L 29.277344 50.132812 C 30.625 50.132812 31.769531 49.0625 31.777344 47.714844 C 31.785156 47.03125 31.511719 46.414062 31.066406 45.96875 C 30.621094 45.527344 30.011719 45.253906 29.339844 45.253906 L 17.410156 45.253906 C 16.886719 45.253906 16.578125 44.660156 16.878906 44.230469 L 18.847656 41.417969 C 19.15625 40.980469 19.292969 40.476562 19.277344 39.980469 C 19.257812 39.265625 18.917969 38.570312 18.296875 38.117188 L 18.246094 38.082031 C 17.136719 37.273438 15.59375 37.519531 14.796875 38.625 C 13.386719 40.578125 7.203125 49.140625 6.589844 49.988281 L 1.71875 68.730469 C 1.550781 69.375 2.035156 70 2.699219 70 Z M 10.515625 70 "/>
<path style=" stroke:none;fill-rule:nonzero;fill:rgb(26.666667%,25.490196%,27.058824%);fill-opacity:1;" d="M 19.15625 32.902344 C 19.722656 32.902344 20.179688 32.445312 20.179688 31.878906 L 20.179688 30.730469 C 20.179688 30.164062 19.722656 29.707031 19.15625 29.707031 C 18.589844 29.707031 18.128906 30.164062 18.128906 30.730469 L 18.128906 31.878906 C 18.128906 32.445312 18.589844 32.902344 19.15625 32.902344 Z M 19.15625 32.902344 "/>
<path style=" stroke:none;fill-rule:nonzero;fill:rgb(26.666667%,25.490196%,27.058824%);fill-opacity:1;" d="M 34.476562 32.902344 C 35.042969 32.902344 35.503906 32.445312 35.503906 31.878906 L 35.503906 30.730469 C 35.503906 30.164062 35.042969 29.707031 34.476562 29.707031 C 33.910156 29.707031 33.453125 30.164062 33.453125 30.730469 L 33.453125 31.878906 C 33.453125 32.445312 33.910156 32.902344 34.476562 32.902344 Z M 34.476562 32.902344 "/>
<path style=" stroke:none;fill-rule:nonzero;fill:rgb(26.666667%,25.490196%,27.058824%);fill-opacity:1;" d="M 25.046875 37.949219 C 26.445312 37.132812 27.75 37.132812 29.144531 37.949219 C 29.308594 38.042969 29.488281 38.085938 29.660156 38.085938 C 30.015625 38.085938 30.359375 37.90625 30.546875 37.578125 C 30.832031 37.089844 30.667969 36.460938 30.179688 36.175781 C 28.164062 35 26.03125 35 24.015625 36.175781 C 23.527344 36.460938 23.359375 37.089844 23.644531 37.578125 C 23.929688 38.066406 24.558594 38.234375 25.046875 37.949219 Z M 25.046875 37.949219 "/>
</g>
</svg>
